<svg width="26" height="20" viewBox="0 0 26 20" fill="none" xmlns="http://www.w3.org/2000/svg">
<path d="M23.9023 15.3359C24.1029 15.737 24.332 16.138 24.5898 16.5391C24.8763 16.9115 25.0911 17.1979 25.2344 17.3984C25.4062 17.5703 25.5065 17.6706 25.5352 17.6992C25.8216 18.0143 25.8789 18.3724 25.707 18.7734C25.5352 19.1745 25.2344 19.375 24.8047 19.375C22.9427 19.375 21.1523 18.8164 19.4336 17.6992C18.5742 17.8997 17.7148 18 16.8555 18C15.0221 18 13.3607 17.6133 11.8711 16.8398C10.4102 16.0664 9.33594 15.0495 8.64844 13.7891C8.21875 13.7318 7.80339 13.6602 7.40234 13.5742C5.71224 14.6914 3.92188 15.25 2.03125 15.25C1.60156 15.25 1.30078 15.0495 1.12891 14.6484C0.957031 14.2474 1.01432 13.8893 1.30078 13.5742C1.90234 13.0013 2.44661 12.2135 2.93359 11.2109C1.67318 9.97917 1.04297 8.57552 1.04297 7C1.04297 5.10938 1.91667 3.49089 3.66406 2.14453C5.41146 0.798177 7.51693 0.125 9.98047 0.125C11.8138 0.125 13.4753 0.511719 14.9648 1.28516C16.4544 2.05859 17.543 3.07552 18.2305 4.33594C20.3789 4.59375 22.1693 5.36719 23.6016 6.65625C25.0625 7.91667 25.793 9.40625 25.793 11.125C25.793 12.7005 25.1628 14.1042 23.9023 15.3359ZM7.01562 11.3828L7.875 11.5547C8.5625 11.7266 9.26432 11.8125 9.98047 11.8125C11.8424 11.8125 13.4466 11.3398 14.793 10.3945C16.168 9.44922 16.8555 8.31771 16.8555 7C16.8555 5.68229 16.168 4.55078 14.793 3.60547C13.4466 2.66016 11.8424 2.1875 9.98047 2.1875C8.11849 2.1875 6.5 2.66016 5.125 3.60547C3.77865 4.55078 3.10547 5.68229 3.10547 7C3.10547 8.0026 3.53516 8.91927 4.39453 9.75L5.42578 10.7812L4.78125 12.1562C4.66667 12.3568 4.55208 12.5573 4.4375 12.7578C5.06771 12.5573 5.68359 12.2565 6.28516 11.8555L7.01562 11.3828ZM22.4414 13.875C23.3008 13.0443 23.7305 12.1276 23.7305 11.125C23.7305 10.0938 23.2721 9.16276 22.3555 8.33203C21.4388 7.47266 20.2786 6.88542 18.875 6.57031C18.9036 6.79948 18.918 6.94271 18.918 7C18.918 8.14583 18.5742 9.22005 17.8867 10.2227C17.2279 11.1966 16.3112 11.9987 15.1367 12.6289C13.9622 13.2591 12.6589 13.6458 11.2266 13.7891C12.6302 15.2214 14.5065 15.9375 16.8555 15.9375C17.5716 15.9375 18.2734 15.8516 18.9609 15.6797L19.8203 15.5078L20.5508 15.9805C21.1523 16.3815 21.7682 16.6823 22.3984 16.8828C22.2839 16.6823 22.1693 16.4818 22.0547 16.2812L21.4102 14.9062L22.4414 13.875Z" fill="#5F5F63"/>
</svg>
