<svg width="59" height="52" viewBox="0 0 59 52" fill="none" xmlns="http://www.w3.org/2000/svg">
<path d="M56.0075 25.1685L44.9897 20.922V8.5269C44.9897 6.80535 43.842 5.31335 42.2352 4.62473L30.7582 0.378259C29.8401 0.0339503 28.8072 0.0339503 27.889 0.378259L16.412 4.62473C14.8053 5.31335 13.6576 6.80535 13.6576 8.5269V20.922L2.6397 25.1685C1.03293 25.7423 0 27.2343 0 28.9559V41.5805C0 43.1873 0.803387 44.6793 2.18062 45.3679L13.6576 51.1064C14.92 51.6802 16.2973 51.6802 17.445 51.1064L29.381 45.1384L41.2023 51.1064C42.4647 51.6802 43.842 51.6802 44.9897 51.1064L56.4666 45.3679C57.8438 44.6793 58.762 43.1873 58.762 41.5805V28.9559C58.762 27.2343 57.6143 25.7423 56.0075 25.1685ZM41.0875 21.0368L31.3321 24.7094V16.9051L41.0875 12.6586V21.0368ZM17.6745 8.41213L29.381 3.93611L41.0875 8.41213L29.381 13.2324L17.6745 8.41213ZM27.3151 41.8101L17.5597 46.6304V37.5636L27.3151 33.0876V41.8101ZM27.3151 28.9559L15.6087 33.6614L3.90216 28.9559V28.8411L15.6087 24.4799L27.3151 28.8411V28.9559ZM54.8598 41.8101L45.1044 46.6304V37.5636L54.8598 33.0876V41.8101ZM54.8598 28.9559L43.1533 33.6614L31.4469 28.9559V28.8411L43.1533 24.4799L54.8598 28.8411V28.9559Z" fill="#6B59D3"/>
</svg>
