<svg width="37" height="36" viewBox="0 0 37 36" fill="none" xmlns="http://www.w3.org/2000/svg">
<path d="M5.71969 5.508C9.19916 2.02853 13.3936 0.28879 18.303 0.28879C23.2124 0.28879 27.383 2.02853 30.8148 5.508C34.2943 8.93982 36.034 13.1104 36.034 18.0198C36.034 22.9292 34.2943 27.1237 30.8148 30.6031C27.383 34.0349 23.2124 35.7509 18.303 35.7509C13.3936 35.7509 9.19916 34.0349 5.71969 30.6031C2.28787 27.1237 0.571969 22.9292 0.571969 18.0198C0.571969 13.1104 2.28787 8.93982 5.71969 5.508ZM28.3839 7.93887C25.6194 5.12669 22.2591 3.7206 18.303 3.7206C14.3469 3.7206 10.9627 5.12669 8.15055 7.93887C5.38604 10.7034 4.00378 14.0637 4.00378 18.0198C4.00378 21.9759 5.38604 25.3601 8.15055 28.1723C10.9627 30.9368 14.3469 32.319 18.303 32.319C22.2591 32.319 25.6194 30.9368 28.3839 28.1723C31.1961 25.3601 32.6022 21.9759 32.6022 18.0198C32.6022 14.0637 31.1961 10.7034 28.3839 7.93887ZM28.3125 13.0151C28.7414 13.4441 28.7414 13.8492 28.3125 14.2305L16.0151 26.4564C15.5861 26.8853 15.181 26.8853 14.7997 26.4564L8.29355 19.9502C7.86457 19.5212 7.86457 19.1161 8.29355 18.7348L9.93796 17.0904C10.3193 16.7091 10.7244 16.7091 11.1534 17.0904L15.3717 21.4516L25.5241 11.3707C25.9054 10.9894 26.3106 11.0132 26.7395 11.4422L28.3125 13.0151Z" fill="#6B59D3"/>
</svg>
