<svg width="17" height="23" viewBox="0 0 17 23" fill="none" xmlns="http://www.w3.org/2000/svg">
<path d="M16.1992 5.26172L11.9883 1.05078C11.7734 0.878906 11.5156 0.75 11.2578 0.75H11V6.25H16.5V5.99219C16.5 5.73438 16.3711 5.47656 16.1992 5.26172ZM9.625 6.59375V0.75H1.03125C0.429688 0.75 0 1.22266 0 1.78125V21.7188C0 22.3203 0.429688 22.75 1.03125 22.75H15.4688C16.0273 22.75 16.5 22.3203 16.5 21.7188V7.625H10.6562C10.0547 7.625 9.625 7.19531 9.625 6.59375ZM2.75 3.84375C2.75 3.67188 2.87891 3.5 3.09375 3.5H6.53125C6.70312 3.5 6.875 3.67188 6.875 3.84375V4.53125C6.875 4.74609 6.70312 4.875 6.53125 4.875H3.09375C2.87891 4.875 2.75 4.74609 2.75 4.53125V3.84375ZM2.75 7.28125V6.59375C2.75 6.42188 2.87891 6.25 3.09375 6.25H6.53125C6.70312 6.25 6.875 6.42188 6.875 6.59375V7.28125C6.875 7.49609 6.70312 7.625 6.53125 7.625H3.09375C2.87891 7.625 2.75 7.49609 2.75 7.28125ZM8.9375 18.625V19.6562C8.9375 19.8711 8.76562 20 8.59375 20H7.90625C7.69141 20 7.5625 19.8711 7.5625 19.6562V18.625C7.04688 18.625 6.57422 18.4531 6.1875 18.1523C6.01562 18.0234 6.01562 17.7656 6.1875 17.6367L6.66016 17.1641C6.78906 17.0352 6.96094 17.0352 7.08984 17.1211C7.26172 17.207 7.47656 17.25 7.64844 17.25H8.85156C9.15234 17.25 9.36719 17.0352 9.36719 16.6914C9.36719 16.4336 9.23828 16.2188 8.98047 16.1758L7.04688 15.5742C6.27344 15.3164 5.71484 14.5859 5.71484 13.7266C5.71484 12.6523 6.53125 11.793 7.51953 11.793V10.7188C7.51953 10.5469 7.69141 10.375 7.86328 10.375H8.55078C8.76562 10.375 8.89453 10.5469 8.89453 10.7188V11.793C9.41016 11.793 9.88281 11.9648 10.2695 12.2656C10.4414 12.3945 10.4414 12.6523 10.2695 12.7812L9.79688 13.2539C9.66797 13.3828 9.49609 13.3828 9.36719 13.2969C9.19531 13.2109 8.98047 13.125 8.80859 13.125H7.60547C7.30469 13.125 7.08984 13.3828 7.08984 13.7266C7.08984 13.9844 7.21875 14.1992 7.47656 14.2422L9.41016 14.8438C10.1836 15.0586 10.7422 15.832 10.7422 16.6914C10.7422 17.7656 9.92578 18.625 8.9375 18.625Z" fill="#5F5F63"/>
</svg>
