<svg width="20" height="23" viewBox="0 0 20 23" fill="none" xmlns="http://www.w3.org/2000/svg">
<path d="M0 20.6875C0 21.8477 0.902344 22.75 2.0625 22.75H17.1875C18.3047 22.75 19.25 21.8477 19.25 20.6875V9H0V20.6875ZM13.75 12.2656C13.75 12.0078 13.9648 11.75 14.2656 11.75H15.9844C16.2422 11.75 16.5 12.0078 16.5 12.2656V13.9844C16.5 14.2852 16.2422 14.5 15.9844 14.5H14.2656C13.9648 14.5 13.75 14.2852 13.75 13.9844V12.2656ZM13.75 17.7656C13.75 17.5078 13.9648 17.25 14.2656 17.25H15.9844C16.2422 17.25 16.5 17.5078 16.5 17.7656V19.4844C16.5 19.7852 16.2422 20 15.9844 20H14.2656C13.9648 20 13.75 19.7852 13.75 19.4844V17.7656ZM8.25 12.2656C8.25 12.0078 8.46484 11.75 8.76562 11.75H10.4844C10.7422 11.75 11 12.0078 11 12.2656V13.9844C11 14.2852 10.7422 14.5 10.4844 14.5H8.76562C8.46484 14.5 8.25 14.2852 8.25 13.9844V12.2656ZM8.25 17.7656C8.25 17.5078 8.46484 17.25 8.76562 17.25H10.4844C10.7422 17.25 11 17.5078 11 17.7656V19.4844C11 19.7852 10.7422 20 10.4844 20H8.76562C8.46484 20 8.25 19.7852 8.25 19.4844V17.7656ZM2.75 12.2656C2.75 12.0078 2.96484 11.75 3.26562 11.75H4.98438C5.24219 11.75 5.5 12.0078 5.5 12.2656V13.9844C5.5 14.2852 5.24219 14.5 4.98438 14.5H3.26562C2.96484 14.5 2.75 14.2852 2.75 13.9844V12.2656ZM2.75 17.7656C2.75 17.5078 2.96484 17.25 3.26562 17.25H4.98438C5.24219 17.25 5.5 17.5078 5.5 17.7656V19.4844C5.5 19.7852 5.24219 20 4.98438 20H3.26562C2.96484 20 2.75 19.7852 2.75 19.4844V17.7656ZM17.1875 3.5H15.125V1.4375C15.125 1.09375 14.7812 0.75 14.4375 0.75H13.0625C12.6758 0.75 12.375 1.09375 12.375 1.4375V3.5H6.875V1.4375C6.875 1.09375 6.53125 0.75 6.1875 0.75H4.8125C4.42578 0.75 4.125 1.09375 4.125 1.4375V3.5H2.0625C0.902344 3.5 0 4.44531 0 5.5625V7.625H19.25V5.5625C19.25 4.44531 18.3047 3.5 17.1875 3.5Z" fill="#959595"/>
</svg>
