<svg width="25" height="20" viewBox="0 0 25 20" fill="none" xmlns="http://www.w3.org/2000/svg">
<path d="M16.543 5.96875C16.8008 5.96875 17.0586 5.96875 17.3594 6.01172C16.6289 2.66016 13.0195 0.125 8.89453 0.125C4.29688 0.125 0.558594 3.26172 0.558594 7.25781C0.558594 9.53516 1.80469 11.4258 3.86719 12.8867L3.05078 15.4219L5.97266 13.9609C7.04688 14.1758 7.86328 14.3906 8.89453 14.3906C9.19531 14.3906 9.41016 14.3477 9.71094 14.3477C9.53906 13.7891 9.41016 13.1875 9.41016 12.5859C9.41016 8.93359 12.5469 5.96875 16.543 5.96875ZM12.0312 3.69141C12.6758 3.69141 13.0625 4.12109 13.0625 4.76562C13.0625 5.36719 12.6758 5.79688 12.0312 5.79688C11.3867 5.79688 10.7852 5.36719 10.7852 4.76562C10.7852 4.12109 11.4297 3.69141 12.0312 3.69141ZM6.1875 5.79688C5.54297 5.79688 4.94141 5.36719 4.94141 4.76562C4.94141 4.12109 5.54297 3.69141 6.1875 3.69141C6.83203 3.69141 7.21875 4.12109 7.21875 4.76562C7.21875 5.36719 6.83203 5.79688 6.1875 5.79688ZM24.1914 12.5C24.1914 9.14844 20.8398 6.44141 17.0586 6.44141C13.0625 6.44141 9.96875 9.14844 9.96875 12.5C9.96875 15.8516 13.1055 18.5586 17.0586 18.5586C17.875 18.5586 18.7344 18.3438 19.5938 18.1289L21.8711 19.418L21.2266 17.3125C22.9453 16.0664 24.1914 14.3906 24.1914 12.5ZM14.7383 11.4258C14.3516 11.4258 13.9219 11.0391 13.9219 10.6094C13.9219 10.1797 14.3516 9.75 14.7383 9.75C15.3828 9.75 15.8125 10.1797 15.8125 10.6094C15.8125 11.0391 15.3828 11.4258 14.7383 11.4258ZM19.3789 11.4258C18.9492 11.4258 18.5195 11.0391 18.5195 10.6094C18.5195 10.1797 18.9492 9.75 19.3789 9.75C19.9805 9.75 20.4102 10.1797 20.4102 10.6094C20.4102 11.0391 19.9805 11.4258 19.3789 11.4258Z" fill="#636363"/>
</svg>
