<svg width="44" height="45" viewBox="0 0 44 45" fill="none" xmlns="http://www.w3.org/2000/svg">
<path d="M37.4688 44.874C37.9844 44.874 38.5 44.4443 38.5 43.8428V41.7803C38.5 41.2646 37.9844 40.749 37.4688 40.749H6.53125C5.92969 40.749 5.5 41.2646 5.5 41.7803V43.8428C5.5 44.4443 5.92969 44.874 6.53125 44.874H37.4688ZM21.9141 0.874023C19.25 0.874023 17.1016 3.1084 17.1016 5.68652C17.1016 8.35059 19.25 10.499 21.9141 10.499C24.5781 10.499 26.7266 8.35059 26.7266 5.68652C26.7266 3.1084 24.5781 0.874023 21.9141 0.874023ZM39.5312 14.1943C39.0156 13.9365 38.4141 14.1084 38.1562 14.624C37.3828 15.9131 36.1797 17.8896 34.375 17.8896C31.8828 17.8896 31.7109 16.1709 31.625 12.9053C31.625 12.3896 31.1094 11.874 30.5938 11.874H27.0703C26.6406 11.874 26.2109 12.2178 26.0391 12.6475C25.3516 14.8818 23.8047 16.1709 22 16.1709C20.1094 16.1709 18.5625 14.8818 17.875 12.6475C17.7031 12.2178 17.2734 11.874 16.8438 11.874H13.3203C12.8047 11.874 12.2891 12.3896 12.2891 12.9053C12.2031 16.1709 12.0312 17.8896 9.53906 17.8896C7.82031 17.8896 6.70312 16.085 5.75781 14.624C5.5 14.1084 4.89844 13.9365 4.38281 14.1943L1.03125 15.999C0.6875 16.1709 0.515625 16.6006 0.515625 16.9443C0.515625 17.0303 0.515625 17.2021 0.515625 17.2881L9.625 39.374H34.375L43.3984 17.2881C43.3984 17.2021 43.3984 17.0303 43.3984 16.9443C43.3984 16.6006 43.2266 16.1709 42.8828 15.999L39.5312 14.1943Z" fill="#6B59D3"/>
</svg>
