<svg width="87" height="62" viewBox="0 0 87 62" fill="none" xmlns="http://www.w3.org/2000/svg">
<path d="M53.3765 32.5539C53.8258 33.0032 53.9156 33.5873 53.646 34.3061C53.3765 34.9352 52.8822 35.2497 52.1634 35.2497H43.1325V46.5719C43.1325 47.6503 42.5933 48.1894 41.515 48.1894H36.1235C35.0452 48.1894 34.506 47.6503 34.506 46.5719V35.2497H25.4751C24.7563 35.2497 24.262 34.9352 23.9925 34.3061C23.7229 33.5873 23.8127 33.0032 24.262 32.5539L37.7409 19.075C38.4598 18.3561 39.1787 18.3561 39.8976 19.075L53.3765 32.5539ZM73.3253 23.3882C77.1892 24.7361 80.2894 27.1174 82.6257 30.5321C85.0519 33.8568 86.265 37.586 86.265 41.7195C86.265 47.1111 84.378 51.6939 80.6039 55.468C76.8298 59.2421 72.2469 61.1292 66.8554 61.1292H21.5663C15.6355 61.1292 10.5585 59.0175 6.33509 54.7941C2.1117 50.5707 0 45.4936 0 39.5629C0 35.1598 1.2131 31.1611 3.6393 27.5667C6.15537 23.8825 9.43523 21.2316 13.4789 19.6141C14.5572 14.1327 17.253 9.63975 21.5663 6.13523C25.9694 2.54085 31.0015 0.743667 36.6626 0.743667C40.3469 0.743667 43.8064 1.5524 47.0414 3.16987C50.2763 4.78734 53.017 6.94396 55.2635 9.63975C56.252 9.46003 57.2404 9.37017 58.2289 9.37017C62.1827 9.37017 65.5973 10.7181 68.4728 13.4138C71.4382 16.1096 73.0557 19.4344 73.3253 23.3882ZM66.8554 54.6593C70.4498 54.6593 73.505 53.4013 76.021 50.8852C78.5371 48.3691 79.7951 45.3139 79.7951 41.7195C79.7951 38.1252 78.5371 35.0699 76.021 32.5539C73.505 30.0378 70.4498 28.7798 66.8554 28.7798C66.4061 28.7798 66.0017 28.7798 65.6423 28.7798C66.451 27.4319 66.8554 25.9942 66.8554 24.4665C66.8554 22.1302 66.0017 20.1084 64.2944 18.401C62.5871 16.6937 60.5652 15.84 58.2289 15.84C56.0723 15.84 54.1852 16.514 52.5677 17.8619C51.3097 14.7168 49.2429 12.1558 46.3674 10.1789C43.4919 8.202 40.257 7.21354 36.6626 7.21354C31.9001 7.21354 27.8115 8.92087 24.3968 12.3355C21.072 15.6603 19.4096 19.704 19.4096 24.4665V24.6013C15.7254 25.1405 12.6252 26.8478 10.1092 29.7233C7.68298 32.509 6.46988 35.7888 6.46988 39.5629C6.46988 43.6964 7.95255 47.2459 10.9179 50.2113C13.8833 53.1766 17.4327 54.6593 21.5663 54.6593H66.8554Z" fill="#D4D4D4"/>
</svg>
